<?xml version="1.0" encoding="utf-8"?>
<!-- Generator: Adobe Illustrator 26.0.1, SVG Export Plug-In . SVG Version: 6.00 Build 0)  -->
<svg version="1.1" id="Layer_1" xmlns="http://www.w3.org/2000/svg" xmlns:xlink="http://www.w3.org/1999/xlink" x="0px" y="0px"
	 viewBox="0 0 1454.7 1085.5" style="enable-background:new 0 0 1454.7 1085.5;" xml:space="preserve">
<style type="text/css">
	.st0{fill:#FFFFFF;}
</style>
<g id="Layer_1_copy_2">
	<g id="XMLID_00000109710622847192348190000012045647300419076785_">
		<g>
			<path d="M1235.3,617.8l219.4,266.9l-727.4,200.8L0,884.7l219.4-266.9L727.3,758L1235.3,617.8z M727.3,1073V770.4l-503.6-139
				L21,878L727.3,1073z"/>
			<path d="M982.7,310.6l217,264L727.3,705L255,574.6l217-264l255.3,70.5L982.7,310.6z M727.3,692.6v-299l-251-69.3L275.9,567.9
				L727.3,692.6z"/>
			<path d="M727.3,0l219.9,267.4l-219.9,60.7l-219.9-60.7L727.3,0z M727.3,315.7V18.9L528.5,260.8L727.3,315.7z"/>
			<polygon class="st0" points="727.3,770.4 727.3,1073 21,878 223.8,631.4 			"/>
			<polygon class="st0" points="727.3,393.6 727.3,692.6 275.9,567.9 476.3,324.2 			"/>
			<polygon class="st0" points="727.3,18.9 727.3,315.7 528.5,260.8 			"/>
		</g>
		<g>
		</g>
	</g>
</g>
</svg>
