<svg xmlns="http://www.w3.org/2000/svg" viewBox="0 0 314 468"><defs><style>.cls-1{fill:#fff;}</style></defs><g id="Layer_2" data-name="Layer 2"><g id="Layer_1-2" data-name="Layer 1"><path d="M314,468H0V0H314ZM182,366.08c-25.68-11.65-53.81-11.64-81.81-13a9.13,9.13,0,0,1,4.12-1.6c3.08-.35,4.82-1.11,6.16-4.77,1.84-5,6.51-8.33,12.57-10.85,0,4.63-.15,8.26.08,11.86.09,1.41,1,2.76,1.61,4.14.64-1.31,1.73-2.57,1.85-3.92a57.47,57.47,0,0,0,.08-10c-.35-4,1.31-6.07,5-7.37,16.19-5.7,31.47-2.7,46.45,4.38,4.57,2.15,7.22,5.08,6.31,10.43-.75,4.35,1,7.35,4.51,10.21q57.7,47.52,115.16,95.31c1.35,1.12,2.78,2.15,4.44,3.43,2-4.83.38-7.65-3-10.4q-55.32-45.68-110.44-91.6c-1.77-1.47-2.74-3.92-4.08-5.91,2.18,1,4.69,1.66,6.5,3.15q53.28,43.84,106.4,87.85c1.45,1.2,3,2.27,4.5,3.39l1.7-1.39c-1.43-2.24-2.42-5-4.36-6.62q-52.53-44.34-105.26-88.44c-5.27-4.42-5.2-4.86-.08-10.51l15.13,11.83c.51-4.5.91-8,1.42-12.44,5.18,4.13,9.34,7.69,13.76,10.89a7.93,7.93,0,0,1,3.59,7.58c-.17,3.44-1,8.07.82,10.13,4.49,5.11,10.31,9.05,16.46,14.18.38-4.61.64-7.78,1-11.87,7.77,6.21,16.49,10.28,14.79,21.88-.27,1.82,1.69,4.58,3.38,6,11.19,9.23,22.57,18.21,33.91,27.25,1.1.88,2.33,1.59,4.15,2.82,0-11.21,0-21.61-.05-32a7,7,0,0,0-1.13-2.75C281,334.91,253.66,282.85,223,232.59c-.61-1-1.45-1.86-2.79-3.56v17.51c-23.08-49.2-48.5-96.65-84.06-138.13a23.55,23.55,0,0,1,7.78,5.43c15,16.92,30.43,33.56,44.72,51.09,9.34,11.46,17,24.27,25.48,36.46a9.71,9.71,0,0,0,1.8,1.53c.52-1.77.91-3.07,1.78-6,33.12,47.56,62.34,95.93,91.5,144.49a14.2,14.2,0,0,0,.69-5.18l.24-326c0-1.17.35-2.52-.12-3.45-.61-1.22-2-3.06-2.84-3-6.72.55-13.9.21-20,2.55-19.3,7.34-38.21,15.73-57.25,23.74a34.46,34.46,0,0,0-3.72,2.32L246,37.64c-38,17.65-76.73,32.45-111.51,55.45,20.06-22.4,45.85-37,72.24-52.6l-9.94-3L253.58,5l-.4-1H35.12L75.59,43.17l-8.16,1.07c5.69,5.26,10.84,9.88,15.82,14.67,5.16,5,10.26,10,15.19,15.21,4.63,4.88,9,10,13.5,15l-.82.55L36.89,38.51h15.7L53,36.9,5.57,3.72l-1.41.81V206.24l29.57-26.91.5,6.28c11-13.92,21.55-28.45,33.31-42s24.55-25.72,36.89-38.51l1.92,1.59C76.53,145.58,46.94,184.55,29.43,230.9c-.15.38-.74.59-2.14,1.63V200.58a27.34,27.34,0,0,0-2.83,2.65c-6.12,8.93-12.52,17.7-18.13,26.94a25.12,25.12,0,0,0-3.27,12.11C2.77,264.11,3,286,3,307.78Q2.87,383,2.58,458.27c0,4.63,1.3,6,5.9,5.87,9.16-.32,18.33,0,27.5,0,23,0,46-.05,69,.09,3.81,0,5.52-.95,5.27-5a66.18,66.18,0,0,1,.47-11c.13-1.21,1-3,2-3.35,7.06-2.58,10.74,0,10.87,7.45,0,2.5,0,5,.17,7.49a27.35,27.35,0,0,0,.93,4.23l1.65-.08a41.86,41.86,0,0,0,.7-4.42c.18-3.83,0-7.7.49-11.47.16-1.21,2.13-3.18,3.16-3.12,11.44.75,22.87,1.79,34.29,2.82,3.74.34,5,2.59,4.72,6.2-.23,2.9,0,5.82,0,8.73l2.09-.05c0-2.39,0-4.78,0-7.17.06-8.92.12-9.5-9-10.33-15.58-1.42-31.23-2-46.84-3-1.83-.13-3.58-1.3-5.37-2,1.72-.8,3.43-2.26,5.15-2.27,10-.06,20.07-.52,30,.56,11.69,1.28,23.26,3.82,34.8,6.17,4.06.82,6.3,2.88,3.9,7.94-3.45,7.24-.41,11.34,7.53,11.34a25.53,25.53,0,0,1,3.5,0c4.22.6,6.3-.83,5.79-5.42-.18-1.64.38-3.37.7-5.72l19,10.82.9-1.65-7.06-4.46c-2.4-1.51-4.86-2.92-7.17-4.56-2-1.41-3.75-3.07-5.62-4.62.4-.51.79-1,1.18-1.54,1.59.77,3.22,1.45,4.74,2.33,7.35,4.27,14.61,8.69,22,12.84,1.87,1,4.21,1.24,6.34,1.83l.41-1.42c-9.64-5.91-19.3-11.79-28.89-17.78a30.74,30.74,0,0,1-4.15-3.78c.4-.51.81-1,1.22-1.52,14.15,7.66,27.26,17.28,42.07,23.8a10,10,0,0,0-3.9-3.73c-11-6.88-22.15-13.62-33.07-20.67-5.25-3.39-9.79-7.44-8.54-14.87a31,31,0,0,0-.15-8,6.66,6.66,0,0,0-8-6.11c2,2.45,5.17,4.65,5.51,7.24.69,5.16,1,11.07-1,15.59-.94,2.14-7.54,1.81-11.57,2.59a3.88,3.88,0,0,0-1,.14c-1.23.64-2.43,1.33-3.64,2a32.54,32.54,0,0,0,2.35,3.4c1.66,1.87,3.47,3.61,5.42,5.61-29.05-14.14-59.44-9.75-89.2-11.08a6.75,6.75,0,0,1,3.87-1.74c5.9.06,6.69-3.17,6.61-8.29-.28-19.49-.14-39-.07-58.49,0-1.74.47-4.9,1-5a29.42,29.42,0,0,1,9.78.32c1,.22,1.87,3.16,1.88,4.87.16,20.67.12,41.33.26,62,0,1.33,1.18,2.65,1.8,4,.67-1.27,1.92-2.53,1.93-3.81.16-21.5.12-43,.27-64.5,0-3.32-1-4.83-4.5-5-4-.19-8-.85-12-1.31l.06-1.83a26.53,26.53,0,0,1,4.92-.39c14.41,1.44,28.83,2.81,43.2,4.55,11.62,1.41,21.38,7,30.3,14.35,34.38,28.25,68.89,56.34,103.11,84.78,5.26,4.37,10.45,3.56,16,3.16l.79-1.32-127-106.4-1.32.53C181.39,359.2,181.73,362.76,182,366.08Zm-11.51,68.81,1.52-.11c0-21.3,0-42.59-.1-63.89a4.47,4.47,0,0,0-2.21-3.39c-11.15-4.61-23-5.68-34.89-6a11.05,11.05,0,0,0,4.37,1.56q12.92,2.73,25.85,5.48c3.67.78,4.89,3,4.88,6.81,0,18.15.2,36.31.36,54.46C170.32,431.49,170.45,433.19,170.53,434.89Zm-7.28-.72,1.16.06a6.43,6.43,0,0,0,.7-2c.07-18.79.14-37.57,0-56.36,0-1.28-1.35-3.48-2.38-3.69-8.79-1.79-17.65-3.22-26.48-4.75l-.42,2.08c1.63.43,3.24,1,4.89,1.26,5.56,1,11.13,1.93,16.72,2.76,4,.6,5.41,2.63,5.36,6.77-.16,16.29,0,32.58.09,48.87C162.91,430.83,163.13,432.5,163.25,434.17Zm-7.4.13,2-.2c.14-1.55.38-3.09.39-4.64,0-6,0-12,0-18-.05-15.11-.41-15.51-15.68-15.86a19.35,19.35,0,0,0-4.24.86v1.66c4.13.69,8.24,1.5,12.39,2.05,3.23.42,4.54,1.93,4.46,5.27-.18,8-.1,16,0,24A31.41,31.41,0,0,0,155.85,434.3ZM131.36,333.9l-.16,1.78c1.69.35,3.38.72,5.08,1,8.8,1.66,17.59,3.37,26.41,4.92,4.5.79,6.64,2.95,6.1,7.78-.33,3,.12,6.12.22,9.19l2.18-.06c0-4-.31-8.12.08-12.13.42-4.36-1.45-6.62-5.45-7.37-9.43-1.78-18.87-3.5-28.34-5.1A36.73,36.73,0,0,0,131.36,333.9Zm43.82,35.43c.29,5.82.7,10.5.73,15.18C176,400,176,415.5,176,431c0,1.66,0,3.32,0,5.87,1.12-1.18,1.51-1.4,1.51-1.62.07-20.65.14-41.31.06-62C177.54,372.16,176.24,371,175.18,369.33Zm73.88,90.11c4.43-14.82-2.07-38.51-14.85-39.05C249.53,429.57,247,445.39,249.06,459.44Zm-57.27-74.17c9.8,4.29,5,14,8.23,20.76a59.91,59.91,0,0,0,.68-11.82C200.57,388.82,198.41,386.43,191.79,385.27Zm68.81,58.14c9.68,3.88,5.34,12.74,7.4,20.12C272.41,453.23,269.23,444.28,260.6,443.41Zm-46.35-5.12c3.2-10.43-.44-18.55-8.21-16.86C215.48,424.25,211.48,432.68,214.25,438.29Zm-71.74,25.3,2.23-.36c-.35-3.84-.06-7.91-1.29-11.45-.78-2.24-3.81-3.7-5.83-5.51l-2.19,1.55C142.37,451.19,142,457.59,142.51,463.59Zm63-67.29c8.65,4.62,3.09,13.73,6.72,19.93.68-4,.45-7.89.74-11.76C213.37,399.2,210,397.46,205.52,396.3ZM154.84,463c2.4-8.43,0-14.09-5.33-14.51C151.2,453.08,153,458,154.84,463Zm9.59,1.11c2.68-7.62,1.4-13.25-4.35-14.16Zm115.79-1.17c1-5.17-1.42-8.44-6.83-9.26ZM175.11,342.86c.81,6.61,1.51,12.26,2.21,17.91C177.14,354.93,180.89,348.5,175.11,342.86Z"/><path class="cls-1" d="M182,366.08c-.31-3.32-.65-6.88-1-10.44l1.32-.53,127,106.4-.79,1.32c-5.57.4-10.76,1.21-16-3.16-34.22-28.44-68.73-56.53-103.11-84.78-8.92-7.34-18.68-12.94-30.3-14.35-14.37-1.74-28.79-3.11-43.2-4.55a26.53,26.53,0,0,0-4.92.39l-.06,1.83c4,.46,8,1.12,12,1.31,3.45.16,4.52,1.67,4.5,5-.15,21.5-.11,43-.27,64.5,0,1.28-1.26,2.54-1.93,3.81-.62-1.33-1.79-2.65-1.8-4-.14-20.67-.1-41.33-.26-62,0-1.71-.9-4.65-1.88-4.87a29.42,29.42,0,0,0-9.78-.32c-.53.06-1,3.22-1,5-.07,19.49-.21,39,.07,58.49.08,5.12-.71,8.35-6.61,8.29a6.75,6.75,0,0,0-3.87,1.74c29.76,1.33,60.15-3.06,89.2,11.08-2-2-3.76-3.74-5.42-5.61a32.54,32.54,0,0,1-2.35-3.4c1.21-.67,2.41-1.36,3.64-2a3.88,3.88,0,0,1,1-.14c4-.78,10.63-.45,11.57-2.59,2-4.52,1.64-10.43,1-15.59-.34-2.59-3.55-4.79-5.51-7.24a6.66,6.66,0,0,1,8,6.11,31,31,0,0,1,.15,8c-1.25,7.43,3.29,11.48,8.54,14.87,10.92,7,22,13.79,33.07,20.67a10,10,0,0,1,3.9,3.73c-14.81-6.52-27.92-16.14-42.07-23.8-.41.5-.82,1-1.22,1.52a30.74,30.74,0,0,0,4.15,3.78c9.59,6,19.25,11.87,28.89,17.78l-.41,1.42c-2.13-.59-4.47-.79-6.34-1.83-7.42-4.15-14.68-8.57-22-12.84-1.52-.88-3.15-1.56-4.74-2.33-.39.51-.78,1-1.18,1.54,1.87,1.55,3.65,3.21,5.62,4.62,2.31,1.64,4.77,3.05,7.17,4.56l7.06,4.46-.9,1.65-19-10.82c-.32,2.35-.88,4.08-.7,5.72.51,4.59-1.57,6-5.79,5.42a25.53,25.53,0,0,0-3.5,0c-7.94,0-11-4.1-7.53-11.34,2.4-5.06.16-7.12-3.9-7.94-11.54-2.35-23.11-4.89-34.8-6.17-9.9-1.08-20-.62-30-.56-1.72,0-3.43,1.47-5.15,2.27,1.79.69,3.54,1.86,5.37,2,15.61,1.07,31.26,1.61,46.84,3,9.13.83,9.07,1.41,9,10.33,0,2.39,0,4.78,0,7.17l-2.09.05c0-2.91-.18-5.83,0-8.73.28-3.61-1-5.86-4.72-6.2-11.42-1-22.85-2.07-34.29-2.82-1-.06-3,1.91-3.16,3.12-.51,3.77-.31,7.64-.49,11.47a41.86,41.86,0,0,1-.7,4.42l-1.65.08a27.35,27.35,0,0,1-.93-4.23c-.19-2.48-.12-5-.17-7.49-.13-7.41-3.81-10-10.87-7.45-1,.36-1.88,2.14-2,3.35a66.18,66.18,0,0,0-.47,11c.25,4.09-1.46,5.07-5.27,5-23-.14-46-.07-69-.09-9.17,0-18.34-.29-27.5,0-4.6.16-5.93-1.24-5.9-5.87Q3,383,3,307.78c0-21.83-.2-43.67.09-65.5a25.12,25.12,0,0,1,3.27-12.11c5.61-9.24,12-18,18.13-26.94a27.34,27.34,0,0,1,2.83-2.65v31.95c1.4-1,2-1.25,2.14-1.63,17.51-46.35,47.1-85.32,76.92-124.16l-1.92-1.59c-12.34,12.79-25.22,25.13-36.89,38.51s-22.34,28-33.31,42l-.5-6.28L4.16,206.24V4.53l1.41-.81L53,36.9l-.45,1.61H36.89l74.23,51.2.82-.55c-4.49-5-8.87-10.16-13.5-15-4.93-5.2-10-10.24-15.19-15.21-5-4.79-10.13-9.41-15.82-14.67l8.16-1.07L35.12,4H253.18l.4,1L196.79,37.45l9.94,3c-26.39,15.6-52.18,30.2-72.24,52.6C169.27,70.09,208,55.29,246,37.64L226.21,32.4a34.46,34.46,0,0,1,3.72-2.32c19-8,37.95-16.4,57.25-23.74,6.12-2.34,13.3-2,20-2.55.89-.07,2.23,1.77,2.84,3,.47.93.12,2.28.12,3.45l-.24,326a14.2,14.2,0,0,1-.69,5.18c-29.16-48.56-58.38-96.93-91.5-144.49-.87,2.95-1.26,4.25-1.78,6a9.71,9.71,0,0,1-1.8-1.53c-8.46-12.19-16.14-25-25.48-36.46C174.38,147.4,159,130.76,144,113.84a23.55,23.55,0,0,0-7.78-5.43c35.56,41.48,61,88.93,84.06,138.13V229c1.34,1.7,2.18,2.56,2.79,3.56,30.64,50.26,58,102.32,84.69,154.75a7,7,0,0,1,1.13,2.75c.08,10.41.05,20.81.05,32-1.82-1.23-3.05-1.94-4.15-2.82-11.34-9-22.72-18-33.91-27.25-1.69-1.4-3.65-4.16-3.38-6,1.7-11.6-7-15.67-14.79-21.88-.33,4.09-.59,7.26-1,11.87-6.15-5.13-12-9.07-16.46-14.18-1.81-2.06-1-6.69-.82-10.13a7.93,7.93,0,0,0-3.59-7.58c-4.42-3.2-8.58-6.76-13.76-10.89-.51,4.48-.91,7.94-1.42,12.44l-15.13-11.83c-5.12,5.65-5.19,6.09.08,10.51q52.64,44.22,105.26,88.44c1.94,1.63,2.93,4.38,4.36,6.62l-1.7,1.39c-1.5-1.12-3.05-2.19-4.5-3.39q-53.17-43.93-106.4-87.85c-1.81-1.49-4.32-2.12-6.5-3.15,1.34,2,2.31,4.44,4.08,5.91q55.13,45.93,110.44,91.6c3.34,2.75,4.94,5.57,3,10.4-1.66-1.28-3.09-2.31-4.44-3.43Q246.59,403.25,189,355.62c-3.47-2.86-5.26-5.86-4.51-10.21.91-5.35-1.74-8.28-6.31-10.43-15-7.08-30.26-10.08-46.45-4.38-3.71,1.3-5.37,3.36-5,7.37a57.47,57.47,0,0,1-.08,10c-.12,1.35-1.21,2.61-1.85,3.92-.56-1.38-1.52-2.73-1.61-4.14-.23-3.6-.08-7.23-.08-11.86-6.06,2.52-10.73,5.85-12.57,10.85-1.34,3.66-3.08,4.42-6.16,4.77a9.13,9.13,0,0,0-4.12,1.6C128.23,354.44,156.36,354.43,182,366.08ZM185.64,259l.74-1.14a27.88,27.88,0,0,0-1.12-3c-1.76-3.47-4.11-6.75-5.31-10.4-7.13-21.59-18.87-39.57-38.79-51.54a6.85,6.85,0,0,1-2.81-4.61c-.74-8.69-5-12.7-13.59-12.66-2.78,0-3.9,1-3.94,3.74,0,3.13.4,6.57-.71,9.33-5.6,14-6.67,28.49-5.75,43.24.32,5.22.37,9.44-6.55,9.14a9,9,0,0,0-2,.37l1.08,1.14L136.45,244c-5.53.23-11,.1-16.51.32-1.51.07-3,1.21-4.48,1.85,1.47.69,2.9,1.89,4.4,2,8.14.53,16.3.67,24.44,1.17,14.08.85,27.28,4.32,38.46,13.51a23.77,23.77,0,0,0,3.48,1.94c-.61-8.53-12.15-13.57-43.12-19.68C158.41,246,173.36,248,185.64,259Zm17.56,61.45c-.21-1.89,0-3-.46-3.77-4.61-8.2-8.37-17.25-18.38-20.56-3.45-1.15-4.55-3.23-4.42-6.72a102.77,102.77,0,0,0-.3-13.48c-.16-1.77-1-4.27-2.35-5-14.69-8.11-30.15-12.24-47-8.14-3.11.76-4.35,2.53-4.25,5.72.13,4.49,0,9-.16,13.49a15.83,15.83,0,0,1-1,3.57l-1.58-.18c-.38-5.93-.76-11.86-1.16-18.12-5,1.34-7.3,3.74-6.91,8.39.15,1.81-.23,3.67-.08,5.49.28,3.36-1.06,4.68-4.49,4.93a136.45,136.45,0,0,0-14.32,2.08A21.62,21.62,0,0,0,91.9,290c10.86,1.17,21.34.85,31.79,1.26s20.94,1.34,31.38,2.42c10.19,1.06,20.26,2.82,29.53,7.47-36.32-8.33-96.47-11.19-104.81-4,17.24,0,33.8-.28,50.35.08,16.93.38,44.46,4,48,6.76-12.95-1.5-26.79-4-40.71-4.51-20.25-.76-40.55-.21-60.83,0-2.83,0-5.64,1.51-8.46,2.32l.36,1.28a8.77,8.77,0,0,0,1.9.11c30.09-4.84,60.13-2.86,90.11.93C175.52,306.11,190.45,308.92,203.2,320.47ZM61.8,309.2l.71,1.55c2.67-.64,5.3-1.68,8-1.85,14.08-.89,28.21-2.66,42.24-2.06,20.06.86,40.11,3.06,60,5.58,10.39,1.31,19.91,5.57,25.84,15.22.26.44,1.06.55,1.61.81,2.15-4.17.47-9.14-5.06-11.62-7.84-3.5-15.9-7.09-24.24-8.75-26.56-5.29-53.54-6.14-80.53-5.34-7.59.23-15.15,1.95-22.66,3.34C65.64,306.47,63.78,308.13,61.8,309.2Zm77.3-171.77c-2.1-4.85-3.32-10.46-6.57-14.4-3.38-4.11-6.59-7.5-5.9-13.24.11-.94-1.59-2.09-2.46-3.14-.68,1.08-1.76,2.09-2,3.26-1.49,8.15-2.79,16.33-4.1,24.17Zm-23.3,48.66c-14.42,5.79-33.7,42.12-32.6,59.7,3.17.46,4.93-.88,5.64-4,.92-4.06,2-8.09,3-12.13,3.89-15.42,9.8-29.75,22.12-40.59C114.49,188.58,114.76,187.78,115.8,186.09Zm-1.13-25.41c11.77-.44,22.6-.11,32.1,6.61-1.72-2.15-3.91-3.42-5.77-5.08-1.22-1.08-2.6-2.62-2.79-4.1-1-8.12-5.6-12.11-13.9-11.36a4.56,4.56,0,0,0-3.22,2.68C119.39,156.65,119.5,156.68,114.67,160.68Zm8.55-83.44,2-.85c0-17.75,0-35.49-.08-53.24,0-1.47-1.18-2.93-1.81-4.39-1.56,1.26-2.17,2.28-2.18,3.3-.09,17.11-.14,34.22,0,51.33C121.14,74.68,122.49,76,123.22,77.24ZM102.3,251.08l.28,1.4c1.26.1,2.52.27,3.78.28,13.13.18,26.32-.44,39.36.7,14.3,1.25,28.44,4.14,38.56,16,.09.1.57-.15,1.83-.5a44.91,44.91,0,0,0-4.31-5.21c-6.51-5.84-14.5-8.64-22.85-10.51-16.85-3.77-34-4-51.12-3.53C106,249.8,104.15,250.62,102.3,251.08Zm139.78,81.66c0,6.51.07,12.23,0,17.94,0,2.9.48,4.75,4.07,4.66s4.77-1.52,4.6-4.85a39.55,39.55,0,0,1,.09-7C251.55,337.65,247.78,335.38,242.08,332.74ZM139.74,146.87c-1.47-5.87-2.55-6.93-9.06-8.46s-8.53-.83-13,4.41ZM222,325.74c-1.23,5.65,10.06,17,17.54,18.28-.77-2.46-.78-5.22-2.15-6.42C232.73,333.49,227.57,329.94,222,325.74ZM144,175.45c.6-1.18.77-1.35.73-1.46-2.09-5.69-17.49-12-22.9-9.24-.6.3-1.38,1.53-1.22,1.81a3.35,3.35,0,0,0,2.09,1.65C130.38,168.61,137.75,170.06,144,175.45ZM271.3,373.55c1.33-5.26-6.58-13.1-16.47-16.57C258.16,365.7,266,368,271.3,373.55Zm-143.42-274q-2.32-9.85-4.64-19.75l-1.09,0c-.67,6-1.34,11.93-2,18.21ZM255.21,336.1c0-6.71-5.36-7.36-8.84-10.44C245.42,330.75,247.31,332.91,255.21,336.1Z"/><path class="cls-1" d="M170.53,434.89c-.08-1.7-.21-3.4-.22-5.11-.16-18.15-.4-36.31-.36-54.46,0-3.81-1.21-6-4.88-6.81q-12.93-2.76-25.85-5.48a11.05,11.05,0,0,1-4.37-1.56c11.94.35,23.74,1.42,34.89,6a4.47,4.47,0,0,1,2.21,3.39c.14,21.3.1,42.59.1,63.89Z"/><path class="cls-1" d="M163.25,434.17c-.12-1.67-.34-3.34-.34-5-.08-16.29-.25-32.58-.09-48.87.05-4.14-1.37-6.17-5.36-6.77-5.59-.83-11.16-1.78-16.72-2.76-1.65-.29-3.26-.83-4.89-1.26l.42-2.08c8.83,1.53,17.69,3,26.48,4.75,1,.21,2.37,2.41,2.38,3.69.12,18.79.05,37.57,0,56.36a6.43,6.43,0,0,1-.7,2Z"/><path class="cls-1" d="M155.85,434.3a31.41,31.41,0,0,1-.77-4.87c-.09-8-.17-16,0-24,.08-3.34-1.23-4.85-4.46-5.27-4.15-.55-8.26-1.36-12.39-2.05v-1.66a19.35,19.35,0,0,1,4.24-.86c15.27.35,15.63.75,15.68,15.86,0,6,.06,12,0,18,0,1.55-.25,3.09-.39,4.64Z"/><path class="cls-1" d="M131.36,333.9a36.73,36.73,0,0,1,6.12.05c9.47,1.6,18.91,3.32,28.34,5.1,4,.75,5.87,3,5.45,7.37-.39,4-.08,8.09-.08,12.13l-2.18.06c-.1-3.07-.55-6.17-.22-9.19.54-4.83-1.6-7-6.1-7.78-8.82-1.55-17.61-3.26-26.41-4.92-1.7-.32-3.39-.69-5.08-1Z"/><path class="cls-1" d="M175.18,369.33c1.06,1.71,2.36,2.83,2.36,3.95.08,20.65,0,41.31-.06,62,0,.22-.39.44-1.51,1.62,0-2.55,0-4.21,0-5.87,0-15.49,0-31-.06-46.48C175.88,379.83,175.47,375.15,175.18,369.33Z"/><path class="cls-1" d="M249.06,459.44c-2.09-14.05.47-29.87-14.85-39.05C247,420.93,253.49,444.62,249.06,459.44Z"/><path class="cls-1" d="M191.79,385.27c6.62,1.16,8.78,3.55,8.91,8.94A59.91,59.91,0,0,1,200,406C196.76,399.24,201.59,389.56,191.79,385.27Z"/><path class="cls-1" d="M260.6,443.41c8.63.87,11.81,9.82,7.4,20.12C265.94,456.15,270.28,447.29,260.6,443.41Z"/><path class="cls-1" d="M214.25,438.29c-2.77-5.61,1.23-14-8.21-16.86C213.81,419.74,217.45,427.86,214.25,438.29Z"/><path class="cls-1" d="M142.51,463.59c-.55-6-.14-12.4-7.08-15.77l2.19-1.55c2,1.81,5,3.27,5.83,5.51,1.23,3.54.94,7.61,1.29,11.45Z"/><path class="cls-1" d="M205.52,396.3c4.46,1.16,7.85,2.9,7.46,8.17-.29,3.87-.06,7.78-.74,11.76C208.61,410,214.17,400.92,205.52,396.3Z"/><path class="cls-1" d="M154.84,463c-1.84-5-3.64-9.92-5.33-14.51C154.81,448.91,157.24,454.57,154.84,463Z"/><path class="cls-1" d="M164.43,464.11,160.08,450C165.83,450.86,167.11,456.49,164.43,464.11Z"/><path class="cls-1" d="M280.22,462.94l-6.83-9.26C278.8,454.5,281.23,457.77,280.22,462.94Z"/><path class="cls-1" d="M175.11,342.86c5.78,5.64,2,12.07,2.21,17.91C176.62,355.12,175.92,349.47,175.11,342.86Z"/><path d="M185.64,259c-12.28-11-27.23-13-42.52-13.9,31,6.11,42.51,11.15,43.12,19.68a23.77,23.77,0,0,1-3.48-1.94c-11.18-9.19-24.38-12.66-38.46-13.51-8.14-.5-16.3-.64-24.44-1.17-1.5-.1-2.93-1.3-4.4-2,1.5-.64,3-1.78,4.48-1.85,5.48-.22,11-.09,16.51-.32l-29.57-1.36-1.08-1.14a9,9,0,0,1,2-.37c6.92.3,6.87-3.92,6.55-9.14-.92-14.75.15-29.27,5.75-43.24,1.11-2.76.68-6.2.71-9.33,0-2.76,1.16-3.73,3.94-3.74,8.6,0,12.85,4,13.59,12.66a6.85,6.85,0,0,0,2.81,4.61c19.92,12,31.66,29.95,38.79,51.54,1.2,3.65,3.55,6.93,5.31,10.4a27.88,27.88,0,0,1,1.12,3Zm-54.57-71.08c5,10,10.1,19,14,28.59,3,7.34,4.42,15.3,6.43,23,.7,2.67,1.57,4.74,5.66,3.51C151.42,223.34,146.79,203.38,131.07,187.94Z"/><path d="M203.2,320.47c-12.75-11.55-27.68-14.36-42.73-16.27-30-3.79-60-5.77-90.11-.93a8.77,8.77,0,0,1-1.9-.11l-.36-1.28c2.82-.81,5.63-2.29,8.46-2.32,20.28-.25,40.58-.8,60.83,0,13.92.52,27.76,3,40.71,4.51-3.5-2.78-31-6.38-48-6.76-16.55-.36-33.11-.08-50.35-.08,8.34-7.2,68.49-4.34,104.81,4-9.27-4.65-19.34-6.41-29.53-7.47-10.44-1.08-20.9-2-31.38-2.42S102.76,291.2,91.9,290a21.62,21.62,0,0,1,4.41-1.87,136.45,136.45,0,0,1,14.32-2.08c3.43-.25,4.77-1.57,4.49-4.93-.15-1.82.23-3.68.08-5.49-.39-4.65,1.94-7.05,6.91-8.39.4,6.26.78,12.19,1.16,18.12l1.58.18a15.83,15.83,0,0,0,1-3.57c.17-4.49.29-9,.16-13.49-.1-3.19,1.14-5,4.25-5.72,16.86-4.1,32.32,0,47,8.14,1.33.74,2.19,3.24,2.35,5a102.77,102.77,0,0,1,.3,13.48c-.13,3.49,1,5.57,4.42,6.72,10,3.31,13.77,12.36,18.38,20.56C203.17,317.47,203,318.58,203.2,320.47Zm-33.93-30.22,1.81.06c0-4.57-.28-9.16.08-13.69.31-3.91-1.31-6-4.85-6.84-7.75-1.8-15.51-3.61-23.33-5.14-3.26-.63-6.67-.56-10-.81l-.24,1.57c1.64.34,3.28.67,4.91,1,8.77,1.88,17.54,3.73,26.3,5.63,3.94.86,5.92,3,5.42,7.41C169,283,169.27,286.65,169.27,290.25Zm-33-21.31-.39,2.15c1.21.3,2.4.65,3.61.89,5.73,1.1,11.44,2.27,17.19,3.23,4.69.78,7.12,3,6.34,8.08-.31,2,.21,4.18.36,6.28l1.58-.11c0-4.07.16-8.15-.11-12.2a3.88,3.88,0,0,0-2.46-2.64C153.69,272.6,145,270.8,136.24,268.94Zm39.88,22.84c3.13-8.75,1.79-16.14-1.57-16.89C175.06,280.36,175.59,286.07,176.12,291.78Z"/><path d="M61.8,309.2c2-1.07,3.84-2.73,6-3.12,7.51-1.39,15.07-3.11,22.66-3.34,27-.8,54,.05,80.53,5.34,8.34,1.66,16.4,5.25,24.24,8.75,5.53,2.48,7.21,7.45,5.06,11.62-.55-.26-1.35-.37-1.61-.81-5.93-9.65-15.45-13.91-25.84-15.22-19.93-2.52-40-4.72-60-5.58-14-.6-28.16,1.17-42.24,2.06-2.7.17-5.33,1.21-8,1.85Z"/><path d="M139.1,137.43l-21-3.35c1.31-7.84,2.61-16,4.1-24.17.21-1.17,1.29-2.18,2-3.26.87,1,2.57,2.2,2.46,3.14-.69,5.74,2.52,9.13,5.9,13.24C135.78,127,137,132.58,139.1,137.43Z"/><path d="M115.8,186.09c-1,1.69-1.31,2.49-1.86,3-12.32,10.84-18.23,25.17-22.12,40.59-1,4-2.06,8.07-3,12.13-.71,3.13-2.47,4.47-5.64,4C82.1,228.21,101.38,191.88,115.8,186.09Z"/><path d="M114.67,160.68c4.83-4,4.72-4,6.42-11.25a4.56,4.56,0,0,1,3.22-2.68c8.3-.75,12.86,3.24,13.9,11.36.19,1.48,1.57,3,2.79,4.1,1.86,1.66,4.05,2.93,5.77,5.08C137.27,160.57,126.44,160.24,114.67,160.68Z"/><path d="M123.22,77.24c-.73-1.28-2.08-2.56-2.09-3.85-.11-17.11-.06-34.22,0-51.33,0-1,.62-2,2.18-3.3.63,1.46,1.8,2.92,1.81,4.39.13,17.75.08,35.49.08,53.24Z"/><path d="M102.3,251.08c1.85-.46,3.68-1.28,5.53-1.33,17.15-.45,34.27-.24,51.12,3.53,8.35,1.87,16.34,4.67,22.85,10.51a44.91,44.91,0,0,1,4.31,5.21c-1.26.35-1.74.6-1.83.5-10.12-11.9-24.26-14.79-38.56-16-13-1.14-26.23-.52-39.36-.7-1.26,0-2.52-.18-3.78-.28Z"/><path d="M242.08,332.74c5.7,2.64,9.47,4.91,8.73,10.78a39.55,39.55,0,0,0-.09,7c.17,3.33-1.13,4.77-4.6,4.85s-4.11-1.76-4.07-4.66C242.15,345,242.08,339.25,242.08,332.74Z"/><path d="M139.74,146.87l-22-4.05c4.44-5.24,6.46-5.95,13-4.41S138.27,141,139.74,146.87Z"/><path d="M222,325.74c5.55,4.2,10.71,7.75,15.39,11.86,1.37,1.2,1.38,4,2.15,6.42C232.08,342.77,220.79,331.39,222,325.74Z"/><path d="M144,175.45c-6.21-5.39-13.58-6.84-21.3-7.24a3.35,3.35,0,0,1-2.09-1.65c-.16-.28.62-1.51,1.22-1.81,5.41-2.71,20.81,3.55,22.9,9.24C144.73,174.1,144.56,174.27,144,175.45Z"/><path d="M271.3,373.55C266,368,258.16,365.7,254.83,357,264.72,360.45,272.63,368.29,271.3,373.55Z"/><path d="M127.88,99.58l-7.77-1.52c.7-6.28,1.37-12.24,2-18.21l1.09,0Q125.57,89.72,127.88,99.58Z"/><path d="M255.21,336.1c-7.9-3.19-9.79-5.35-8.84-10.44C249.85,328.74,255.25,329.39,255.21,336.1Z"/><path class="cls-1" d="M131.07,187.94c15.72,15.44,20.35,35.4,26.07,55.12-4.09,1.23-5-.84-5.66-3.51-2-7.72-3.45-15.68-6.43-23C141.17,207,136,197.93,131.07,187.94Z"/><path class="cls-1" d="M169.27,290.25c0-3.6-.32-7.24.09-10.79.5-4.4-1.48-6.55-5.42-7.41-8.76-1.9-17.53-3.75-26.3-5.63-1.63-.35-3.27-.68-4.91-1l.24-1.57c3.34.25,6.75.18,10,.81,7.82,1.53,15.58,3.34,23.33,5.14,3.54.82,5.16,2.93,4.85,6.84-.36,4.53-.08,9.12-.08,13.69Z"/><path class="cls-1" d="M136.24,268.94c8.72,1.86,17.45,3.66,26.12,5.68a3.88,3.88,0,0,1,2.46,2.64c.27,4.05.11,8.13.11,12.2l-1.58.11c-.15-2.1-.67-4.25-.36-6.28.78-5.12-1.65-7.3-6.34-8.08-5.75-1-11.46-2.13-17.19-3.23-1.21-.24-2.4-.59-3.61-.89Z"/><path class="cls-1" d="M176.12,291.78c-.53-5.71-1.06-11.42-1.57-16.89C177.91,275.64,179.25,283,176.12,291.78Z"/></g></g></svg>